<svg xmlns="http://www.w3.org/2000/svg" viewBox="0 0 1112.6 499.08"><defs><style>.cls-1{fill:#5e50a1;}.cls-2{fill:#fbb017;}.cls-3{fill:#f9dbc2;}</style></defs><g id="Layer_2" data-name="Layer 2"><g id="Layer_1-2" data-name="Layer 1"><path class="cls-1" d="M280.77,259.35A123.63,123.63,0,0,1,183,307.06c-68-.14-123.73-55.87-123.76-123.84S114.84,59.58,183,59.36a123.53,123.53,0,0,1,97.79,47.72l43.09-41.19C290.2,25.7,239.68,0,183.4,0,82.91.08.21,80.17,0,183c-.2,101.3,81.11,182.74,183,183.46a182.1,182.1,0,0,0,140.85-65.94Z"/><path class="cls-2" d="M415.9,499.08c-11.63-2.33-19.65-9.67-27-18.47C359.07,445.16,329,410,299.09,374.6c-2.28-2.68-4.73-5.64-5.73-8.9-2.14-7,.95-12.28,6.39-17q17.79-15.48,34.82-31.82c4.29-4.12,7.54-9.33,11.26-14.05,7.22-9.14,15.55-10.2,24.34-2.76q56.18,47.57,112.21,95.28c18.25,15.6,18.88,36.85,2,53.92-10.86,11-22,21.71-32.69,32.81-7.43,7.69-15.28,14.48-26,17Z"/><path class="cls-3" d="M186.47,99.93c4.19,1,8.6,1.51,12.54,3.14,15,6.17,24.06,17.34,26.84,33.34a42.47,42.47,0,0,1-21.72,44.52c-15.67,8.4-31.27,7.54-45.88-2.62-11.73-8.17-17.91-19.83-18.18-34.11-.29-15.87,6.56-28.34,19.69-37.24a41.16,41.16,0,0,1,19.27-6.8,6.31,6.31,0,0,0,.93-.23Z"/><path class="cls-2" d="M185.62,266.55c-21.53-.18-38.71-5.7-53.87-17a85.41,85.41,0,0,1-22.23-24.37,4.42,4.42,0,0,1-.4-4.46c7.55-15.78,19.74-25.89,36.74-30.15,1.31-.32,2.66-.51,4-.79a8.58,8.58,0,0,1,7,1.74,44.9,44.9,0,0,0,28.49,8.27c8-.33,15.72-2.27,22.16-7,4.81-3.53,9.42-3.31,14.56-1.88,14.49,4,25.42,12.68,33.14,25.51,3.34,5.56,3.47,5.67-.11,11.05a85,85,0,0,1-34,30.18C208.29,263.84,196,266.57,185.62,266.55Z"/><path class="cls-1" d="M421.64,91.43c-28.42,0-59.17,7.35-79.9,21.06l21.4,43.12c12.37-9.69,31.76-15.71,49.14-15.71,25.07,0,37.44,10.36,38.44,28.75h-36.1c-56.16,0-80.56,20.72-80.56,54.15,0,31.43,24.06,55.83,67.52,55.83,26.41,0,44.46-9,53.49-26.41v23.4h59.17V175C514.24,117.5,480.48,91.43,421.64,91.43Zm29.08,126c-5,14.37-17.38,21.06-31.42,21.06-15,0-23.73-7.69-23.73-18.39,0-11,7.35-18.39,27.74-18.39h27.41Z"/><path class="cls-1" d="M675.7,91.43v57.16a115.52,115.52,0,0,0-14.38-1c-25.74,0-43.46,13-43.46,44.79v83.24H554.35V94.44h60.51v21.72C627.89,99.78,649,91.43,675.7,91.43Z"/><path class="cls-2" d="M694.75,40.61c0-19,15.37-33.76,38.77-33.76S772.3,20.56,772.3,39.61c0,20.06-15.37,34.77-38.78,34.77S694.75,59.67,694.75,40.61Z"/><rect class="cls-1" x="701.77" y="94.44" width="63.52" height="181.19"/><rect class="cls-1" x="809.4" y="6.85" width="66.19" height="268.77"/><path class="cls-1" d="M1112.6,172V275.62h-63.51V182.35c0-26.07-11.37-37.1-29.76-37.1-20.39,0-36.1,12.7-36.1,42.79v87.58H919.72V94.44h60.5v19.72c14.38-15,34.77-22.73,57.5-22.73C1080.18,91.43,1112.6,115.83,1112.6,172Z"/></g></g></svg>