<svg xmlns="http://www.w3.org/2000/svg" viewBox="0 0 496.57 499.09"><defs><style>.cls-1{fill:#fff;}</style></defs><g id="Layer_2" data-name="Layer 2"><g id="Layer_1-2" data-name="Layer 1"><path class="cls-1" d="M183,366.49C81.11,365.76-.21,284.32,0,183,.21,80.17,82.91.08,183.4,0c101-.08,183.5,83,183,183.47C365.93,284.91,283.9,366.77,183,366.49ZM59.21,183.23c0,68,55.72,123.69,123.75,123.83,68.33.14,124.06-55.49,124-123.84S251.15,59.14,182.94,59.36,59.18,115.3,59.21,183.23Z"/><path class="cls-1" d="M415.9,499.09c-11.64-2.33-19.65-9.68-27-18.48-29.79-35.44-59.88-70.65-89.78-106-2.27-2.69-4.73-5.65-5.72-8.9-2.15-7,.94-12.28,6.39-17q17.78-15.48,34.81-31.83c4.29-4.12,7.55-9.33,11.27-14,7.21-9.15,15.55-10.2,24.34-2.76q56.18,47.55,112.21,95.28c18.25,15.59,18.88,36.85,2,53.92-10.87,11-22,21.7-32.69,32.8-7.43,7.69-15.29,14.48-26,17Z"/><path class="cls-1" d="M187.3,78.51c5.27,1.28,10.81,1.91,15.77,3.95,18.79,7.76,30.24,21.8,33.74,41.92a53.4,53.4,0,0,1-27.31,56c-19.69,10.56-39.31,9.48-57.67-3.3-14.75-10.26-22.52-24.93-22.85-42.88-.38-20,8.24-35.62,24.75-46.81A51.58,51.58,0,0,1,178,78.81a8,8,0,0,0,1.17-.3Z"/><path class="cls-1" d="M186.24,288c-27.08-.22-48.67-7.17-67.72-21.37A107.46,107.46,0,0,1,90.57,236a5.55,5.55,0,0,1-.5-5.61c9.48-19.84,24.81-32.55,46.18-37.9,1.65-.41,3.34-.64,5-1,3.3-.7,6.11.29,8.81,2.19a56.56,56.56,0,0,0,35.82,10.39c10.06-.42,19.75-2.86,27.85-8.82,6-4.44,11.85-4.15,18.3-2.36,18.22,5.08,32,15.94,41.66,32.07,4.21,7,4.36,7.12-.13,13.89-10.9,16.39-25,29.33-42.75,37.94C214.74,284.56,199.26,288,186.24,288Z"/></g></g></svg>